<svg xmlns="http://www.w3.org/2000/svg" viewBox="0 0 128 128" width="100%" height="100%">
  <defs>
    <linearGradient id="lemonRindGrad" x1="0%" y1="0%" x2="0%" y2="100%">
      <stop offset="0%" stop-color="#FDE047"/>
      <stop offset="100%" stop-color="#FBBF24"/>
    </linearGradient>
    <linearGradient id="lemonWedgeGrad" x1="0%" y1="0%" x2="100%" y2="100%">
      <stop offset="0%" stop-color="#FEF9C3"/>
      <stop offset="100%" stop-color="#FDE047"/>
    </linearGradient>
    <path id="genericWedgePath" 
          d="M 64 64 
             L 109.18 51.05 
             A 47 47 0 0 1 109.18 76.95 
             Z" />
  </defs>
  
  <path d="M 24 16 C 24 11.6 27.6 8 32 8 H 76 L 104 36 V 112 C 104 116.4 100.4 120 96 120 H 32 C 27.6 120 24 116.4 24 112 Z" 
        fill="url(#iconSlateGrad)" />
  <path d="M 76 8 V 28 C 76 32.4 79.6 36 84 36 H 104 Z" fill="#64748B" opacity="0.6"/>

  <g transform="translate(48, 48)">
    <circle cx="64" cy="64" r="54" fill="url(#lemonRindGrad)"/>
    <circle cx="64" cy="64" r="48" fill="#FFFFFF"/>
    <circle cx="64" cy="64" r="44" fill="url(#lemonWedgeGrad)"/>
    
    <use href="#genericWedgePath" transform="rotate(0 64 64)" fill="#FFFFFF" opacity="0.5"/>
    <use href="#genericWedgePath" transform="rotate(45 64 64)" fill="#FFFFFF" opacity="0.5"/>
    <use href="#genericWedgePath" transform="rotate(90 64 64)" fill="#FFFFFF" opacity="0.5"/>
    <use href="#genericWedgePath" transform="rotate(135 64 64)" fill="#FFFFFF" opacity="0.5"/>
    
    <circle cx="64" cy="64" r="6" fill="#FFFFFF"/>
  </g>
</svg>
