<svg xmlns="http://www.w3.org/2000/svg" viewBox="0 0 128 128" width="100%" height="100%">
  <defs>
    <linearGradient id="orangeRindGrad" x1="0%" y1="0%" x2="0%" y2="100%">
      <stop offset="0%" stop-color="#FB923C"/>
      <stop offset="100%" stop-color="#C2410C"/>
    </linearGradient>
    <linearGradient id="orangeWedgeGrad" x1="0%" y1="0%" x2="100%" y2="100%">
      <stop offset="0%" stop-color="#FDBA74"/>
      <stop offset="100%" stop-color="#FB923C"/>
    </linearGradient>
    <path id="genericWedgePath" 
          d="M 64 64 
             L 109.18 51.05 
             A 47 47 0 0 1 109.18 76.95 
             Z" />
  </defs>
  
  <path d="M 24 16 C 24 11.6 27.6 8 32 8 H 76 L 104 36 V 112 C 104 116.4 100.4 120 96 120 H 32 C 27.6 120 24 116.4 24 112 Z" 
        fill="url(#iconSlateGrad)" />
  <path d="M 76 8 V 28 C 76 32.4 79.6 36 84 36 H 104 Z" fill="#64748B" opacity="0.6"/>

  <g transform="translate(48, 48)">
    <circle cx="64" cy="64" r="54" fill="url(#orangeRindGrad)"/>
    <circle cx="64" cy="64" r="48" fill="#FFFFFF"/>
    <circle cx="64" cy="64" r="44" fill="url(#orangeWedgeGrad)"/>
    
    <use href="#genericWedgePath" transform="rotate(0 64 64)" fill="#FFFFFF" opacity="0.6"/>
    <use href="#genericWedgePath" transform="rotate(45 64 64)" fill="#FFFFFF" opacity="0.6"/>
    <use href="#genericWedgePath" transform="rotate(90 64 64)" fill="#FFFFFF" opacity="0.6"/>
    <use href="#genericWedgePath" transform="rotate(135 64 64)" fill="#FFFFFF" opacity="0.6"/>
    
    <path d="M 30 64 H 40 M 88 64 H 98 M 38 60 H 42 L 44 68 H 40 Z M 46 60 H 50 L 52 68 H 48 Z M 54 60 H 58 L 60 68 H 56 Z M 62 60 H 66 L 68 68 H 64 Z M 70 60 H 74 L 76 68 H 72 Z M 78 60 H 82 L 84 68 H 80 Z" stroke="#FFFFFF" stroke-width="2" fill="#FFFFFF"/>
    
    <circle cx="64" cy="64" r="6" fill="#FFFFFF"/>
  </g>
</svg>
